<svg width="20" height="19" viewBox="0 0 20 19" fill="none" xmlns="http://www.w3.org/2000/svg">
<path d="M9.99913 4.69371C7.33898 4.69371 5.1921 6.84059 5.1921 9.50075C5.1921 12.1609 7.33898 14.3078 9.99913 14.3078C12.6593 14.3078 14.8062 12.1609 14.8062 9.50075C14.8062 6.84059 12.6593 4.69371 9.99913 4.69371ZM9.99913 12.625C8.27882 12.625 6.87492 11.2211 6.87492 9.50075C6.87492 7.78043 8.27882 6.37653 9.99913 6.37653C11.7194 6.37653 13.1234 7.78043 13.1234 9.50075C13.1234 11.2211 11.7194 12.625 9.99913 12.625ZM15.003 3.37653C14.3819 3.37653 13.8804 3.87809 13.8804 4.49918C13.8804 5.12028 14.3819 5.62184 15.003 5.62184C15.6241 5.62184 16.1257 5.12262 16.1257 4.49918C16.1259 4.3517 16.097 4.20563 16.0406 4.06934C15.9843 3.93305 15.9016 3.80922 15.7973 3.70493C15.693 3.60065 15.5692 3.51796 15.4329 3.46161C15.2966 3.40525 15.1505 3.37634 15.003 3.37653V3.37653ZM19.3694 9.50075C19.3694 8.207 19.3812 6.92496 19.3085 5.63356C19.2359 4.13356 18.8937 2.80231 17.7968 1.70543C16.6976 0.606215 15.3687 0.266371 13.8687 0.193715C12.5749 0.121058 11.2929 0.132777 10.0015 0.132777C8.70773 0.132777 7.4257 0.121058 6.13429 0.193715C4.63429 0.266371 3.30304 0.608558 2.20617 1.70543C1.10695 2.80465 0.767103 4.13356 0.694447 5.63356C0.621791 6.92731 0.63351 8.20934 0.63351 9.50075C0.63351 10.7922 0.621791 12.0765 0.694447 13.3679C0.767103 14.8679 1.10929 16.1992 2.20617 17.2961C3.30538 18.3953 4.63429 18.7351 6.13429 18.8078C7.42804 18.8804 8.71007 18.8687 10.0015 18.8687C11.2952 18.8687 12.5773 18.8804 13.8687 18.8078C15.3687 18.7351 16.6999 18.3929 17.7968 17.2961C18.896 16.1968 19.2359 14.8679 19.3085 13.3679C19.3835 12.0765 19.3694 10.7945 19.3694 9.50075V9.50075ZM17.3069 15.0273C17.1359 15.4539 16.9296 15.7726 16.5991 16.1007C16.2687 16.4312 15.9523 16.6375 15.5257 16.8086C14.2929 17.2984 11.3655 17.1882 9.99913 17.1882C8.63273 17.1882 5.70304 17.2984 4.47023 16.8109C4.04367 16.6398 3.72492 16.4336 3.39679 16.1031C3.06632 15.7726 2.86007 15.4562 2.68898 15.0297C2.20148 13.7945 2.31163 10.8672 2.31163 9.50075C2.31163 8.13434 2.20148 5.20465 2.68898 3.97184C2.86007 3.54528 3.06632 3.22653 3.39679 2.8984C3.72726 2.57028 4.04367 2.36168 4.47023 2.19059C5.70304 1.70309 8.63273 1.81325 9.99913 1.81325C11.3655 1.81325 14.2952 1.70309 15.528 2.19059C15.9546 2.36168 16.2734 2.56793 16.6015 2.8984C16.9319 3.22887 17.1382 3.54528 17.3093 3.97184C17.7968 5.20465 17.6866 8.13434 17.6866 9.50075C17.6866 10.8672 17.7968 13.7945 17.3069 15.0273Z" fill="#777576"/>
</svg>
