<svg width="60" height="51" viewBox="0 0 60 51" fill="none" xmlns="http://www.w3.org/2000/svg">
<path d="M0.0125514 36.9471C0.0125514 44.7085 6.30401 51 14.0653 51C21.8266 51 28.1181 44.7085 28.1181 36.9471C28.1181 29.1858 21.8266 22.8944 14.0653 22.8944C12.4702 22.8944 10.9434 23.1725 9.514 23.6625C12.6765 5.52492 26.8203 -6.17176 13.709 3.45484C-0.829425 14.1297 -0.00301919 36.5177 0.0132486 36.928C0.0132486 36.9344 0.0125514 36.94 0.0125514 36.9471Z" fill="#EDEDED"/>
<path d="M30.9281 36.9471C30.9281 44.7085 37.2196 50.9999 44.9809 50.9999C52.7423 50.9999 59.0338 44.7085 59.0338 36.9471C59.0338 29.1857 52.7422 22.8944 44.9808 22.8944C43.3857 22.8944 41.8589 23.1725 40.4296 23.6625C43.592 5.5249 57.7358 -6.17178 44.6246 3.45482C30.0861 14.1296 30.9124 36.5176 30.9288 36.9279C30.9288 36.9343 30.9281 36.94 30.9281 36.9471Z" fill="#EDEDED"/>
</svg>
