<svg width="18" height="19" viewBox="0 0 18 19" fill="none" xmlns="http://www.w3.org/2000/svg">
<path d="M17.325 10.9625C17.4375 10.5125 18 6.6875 14.9625 3.425C12.15 0.3875 7.7625 0.95 7.3125 1.0625C6.6375 0.725 5.85 0.5 5.0625 0.5C1.125 0.5 0 4.2125 0 5.5625C0 6.9125 0.675 8.0375 0.675 8.0375C0.225 9.8375 0.7875 11.75 1.125 12.7625C2.1375 15.35 4.6125 16.8125 5.625 17.2625C8.1 18.275 10.125 17.825 10.4625 17.825C11.25 18.275 12.0375 18.5 12.9375 18.5C14.2875 18.5 18 17.375 18 13.4375C18 12.0875 17.325 10.9625 17.325 10.9625ZM9 14.675C5.9625 14.675 4.6125 13.2125 4.6125 12.0875C4.6125 11.525 5.0625 11.075 5.625 11.075C6.8625 11.075 6.6375 12.875 9 12.875C10.2375 12.875 10.9125 12.2 10.9125 11.525C10.9125 10.175 9.3375 10.4 7.2 9.8375C5.0625 9.275 4.725 8.15 4.725 7.025C4.725 4.775 6.8625 3.875 8.8875 3.875C10.8 3.875 12.9375 4.8875 12.9375 6.2375C12.9375 6.8 12.375 7.1375 11.8125 7.1375C10.6875 7.1375 10.9125 5.5625 8.6625 5.5625C7.5375 5.5625 6.975 6.0125 6.975 6.8C6.975 7.8125 9 8.0375 10.575 8.375C12.7125 8.9375 13.275 10.175 13.275 11.3C13.3875 13.325 11.925 14.675 9 14.675Z" fill="#777576"/>
</svg>
