<svg width="20" height="17" viewBox="0 0 20 17" fill="none" xmlns="http://www.w3.org/2000/svg">
<path d="M17.633 4.49704C17.646 4.67204 17.646 4.84604 17.646 5.02004C17.646 10.345 13.593 16.481 6.186 16.481C3.904 16.481 1.784 15.82 0 14.672C0.324 14.709 0.636 14.722 0.973 14.722C2.78599 14.7264 4.54765 14.1202 5.974 13.001C5.13342 12.9858 4.31858 12.7085 3.64324 12.2078C2.9679 11.7071 2.46578 11.0079 2.207 10.208C2.456 10.245 2.706 10.27 2.968 10.27C3.329 10.27 3.692 10.22 4.029 10.133C3.11676 9.94886 2.29647 9.45439 1.70762 8.73373C1.11876 8.01306 0.797693 7.11069 0.799 6.18004V6.13004C1.336 6.42904 1.959 6.61604 2.619 6.64104C2.06609 6.27363 1.61272 5.77507 1.29934 5.18983C0.98596 4.6046 0.822313 3.9509 0.823 3.28704C0.823 2.53904 1.022 1.85304 1.371 1.25504C2.38314 2.50006 3.6455 3.51861 5.07634 4.2447C6.50717 4.9708 8.07456 5.38826 9.677 5.47004C9.615 5.17004 9.577 4.85904 9.577 4.54704C9.57674 4.018 9.68074 3.4941 9.88308 3.00528C10.0854 2.51647 10.3821 2.07232 10.7562 1.69823C11.1303 1.32414 11.5744 1.02745 12.0632 0.825121C12.5521 0.622789 13.076 0.518781 13.605 0.519043C14.765 0.519043 15.812 1.00504 16.548 1.79104C17.4498 1.61666 18.3145 1.28747 19.104 0.818043C18.8034 1.74886 18.1738 2.53815 17.333 3.03804C18.1328 2.94682 18.9144 2.7365 19.652 2.41404C19.1011 3.21714 18.4185 3.92139 17.633 4.49704V4.49704Z" fill="#777576"/>
</svg>
